<svg width="45" height="40" viewBox="0 0 45 40" fill="none" xmlns="http://www.w3.org/2000/svg">
<g clip-path="url(#clip0_3_23)">
<path d="M1.875 1.66667H9.375L14.4 23.9833C14.5715 24.7507 15.0411 25.4399 15.7266 25.9305C16.4122 26.4211 17.2701 26.6817 18.15 26.6667H36.375C37.2549 26.6817 38.1128 26.4211 38.7984 25.9305C39.4839 25.4399 39.9535 24.7507 40.125 23.9833L43.125 10H11.25M18.75 35C18.75 35.9205 17.9105 36.6667 16.875 36.6667C15.8395 36.6667 15 35.9205 15 35C15 34.0795 15.8395 33.3333 16.875 33.3333C17.9105 33.3333 18.75 34.0795 18.75 35ZM39.375 35C39.375 35.9205 38.5355 36.6667 37.5 36.6667C36.4645 36.6667 35.625 35.9205 35.625 35C35.625 34.0795 36.4645 33.3333 37.5 33.3333C38.5355 33.3333 39.375 34.0795 39.375 35Z" stroke="#8B3F93" stroke-width="4" stroke-linecap="round" stroke-linejoin="round"/>
</g>
<defs>
<clipPath id="clip0_3_23">
<rect width="45" height="40" fill="white"/>
</clipPath>
</defs>
</svg>
